<?xml version="1.0" encoding="UTF-8" standalone="no"?>
<!-- Generator: Adobe Illustrator 19.0.0, SVG Export Plug-In . SVG Version: 6.00 Build 0)  -->

<svg
   xmlns:dc="http://purl.org/dc/elements/1.1/"
   xmlns:cc="http://creativecommons.org/ns#"
   xmlns:rdf="http://www.w3.org/1999/02/22-rdf-syntax-ns#"
   xmlns:svg="http://www.w3.org/2000/svg"
   xmlns="http://www.w3.org/2000/svg"
   xmlns:sodipodi="http://sodipodi.sourceforge.net/DTD/sodipodi-0.dtd"
   xmlns:inkscape="http://www.inkscape.org/namespaces/inkscape"
   version="1.1"
   id="Capa_1"
   x="0px"
   y="0px"
   viewBox="0 0 60.176 60.176"
   style="enable-background:new 0 0 60.176 60.176;"
   xml:space="preserve"
   inkscape:version="0.91 r13725"
   sodipodi:docname="clouds-1.svg"><metadata
     id="metadata71"><rdf:RDF><cc:Work
         rdf:about=""><dc:format>image/svg+xml</dc:format><dc:type
           rdf:resource="http://purl.org/dc/dcmitype/StillImage" /></cc:Work></rdf:RDF></metadata><defs
     id="defs69" /><sodipodi:namedview
     pagecolor="#ffffff"
     bordercolor="#666666"
     borderopacity="1"
     objecttolerance="10"
     gridtolerance="10"
     guidetolerance="10"
     inkscape:pageopacity="0"
     inkscape:pageshadow="2"
     inkscape:window-width="640"
     inkscape:window-height="480"
     id="namedview67"
     showgrid="false" /><g
     id="g4280"
     transform="translate(0.11014051,0.06585849)"><g
       id="g4206"><path
         id="path4208"
         d="m 30,0 c -0.552,0 -1,0.448 -1,1 l 0,6 c 0,0.552 0.448,1 1,1 0.552,0 1,-0.448 1,-1 L 31,1 C 31,0.448 30.552,0 30,0 Z"
         style="fill:#f0c419"
         inkscape:connector-curvature="0" /><path
         id="path4210"
         d="m 30,52 c -0.552,0 -1,0.448 -1,1 l 0,6 c 0,0.552 0.448,1 1,1 0.552,0 1,-0.448 1,-1 l 0,-6 c 0,-0.552 -0.448,-1 -1,-1 z"
         style="fill:#f0c419"
         inkscape:connector-curvature="0" /><path
         id="path4212"
         d="m 59,29 -6,0 c -0.552,0 -1,0.448 -1,1 0,0.552 0.448,1 1,1 l 6,0 c 0.552,0 1,-0.448 1,-1 0,-0.552 -0.448,-1 -1,-1 z"
         style="fill:#f0c419"
         inkscape:connector-curvature="0" /><path
         id="path4214"
         d="M 8,30 C 8,29.448 7.552,29 7,29 l -6,0 c -0.552,0 -1,0.448 -1,1 0,0.552 0.448,1 1,1 l 6,0 c 0.552,0 1,-0.448 1,-1 z"
         style="fill:#f0c419"
         inkscape:connector-curvature="0" /><path
         id="path4216"
         d="m 46.264,14.736 c 0.256,0 0.512,-0.098 0.707,-0.293 l 5.736,-5.736 c 0.391,-0.391 0.391,-1.023 0,-1.414 -0.391,-0.391 -1.023,-0.391 -1.414,0 l -5.736,5.736 c -0.391,0.391 -0.391,1.023 0,1.414 0.195,0.196 0.451,0.293 0.707,0.293 z"
         style="fill:#f0c419"
         inkscape:connector-curvature="0" /><path
         id="path4218"
         d="m 13.029,45.557 -5.736,5.736 c -0.391,0.391 -0.391,1.023 0,1.414 C 7.488,52.902 7.744,53 8,53 8.256,53 8.512,52.902 8.707,52.707 l 5.736,-5.736 c 0.391,-0.391 0.391,-1.023 0,-1.414 -0.391,-0.391 -1.023,-0.391 -1.414,0 z"
         style="fill:#f0c419"
         inkscape:connector-curvature="0" /><path
         id="path4220"
         d="m 46.971,45.557 c -0.391,-0.391 -1.023,-0.391 -1.414,0 -0.391,0.391 -0.391,1.023 0,1.414 l 5.736,5.736 C 51.488,52.902 51.744,53 52,53 c 0.256,0 0.512,-0.098 0.707,-0.293 0.391,-0.391 0.391,-1.023 0,-1.414 l -5.736,-5.736 z"
         style="fill:#f0c419"
         inkscape:connector-curvature="0" /><path
         id="path4222"
         d="m 8.707,7.293 c -0.391,-0.391 -1.023,-0.391 -1.414,0 -0.391,0.391 -0.391,1.023 0,1.414 l 5.736,5.736 c 0.195,0.195 0.451,0.293 0.707,0.293 0.256,0 0.512,-0.098 0.707,-0.293 0.391,-0.391 0.391,-1.023 0,-1.414 L 8.707,7.293 Z"
         style="fill:#f0c419"
         inkscape:connector-curvature="0" /><path
         id="path4224"
         d="m 50.251,21.404 c 0.162,0.381 0.532,0.61 0.921,0.61 0.13,0 0.263,-0.026 0.39,-0.08 l 2.762,-1.172 c 0.508,-0.216 0.746,-0.803 0.53,-1.311 -0.216,-0.508 -0.804,-0.746 -1.311,-0.53 l -2.762,1.172 c -0.509,0.216 -0.746,0.803 -0.53,1.311 z"
         style="fill:#f0c419"
         inkscape:connector-curvature="0" /><path
         id="path4226"
         d="M 9.749,38.596 C 9.533,38.088 8.946,37.85 8.438,38.066 l -2.762,1.172 c -0.508,0.216 -0.746,0.803 -0.53,1.311 0.162,0.381 0.532,0.61 0.921,0.61 0.13,0 0.263,-0.026 0.39,-0.08 l 2.762,-1.172 c 0.509,-0.216 0.746,-0.803 0.53,-1.311 z"
         style="fill:#f0c419"
         inkscape:connector-curvature="0" /><path
         id="path4228"
         d="M 54.481,38.813 51.7,37.688 c -0.511,-0.207 -1.095,0.041 -1.302,0.553 -0.207,0.512 0.041,1.095 0.553,1.302 l 2.782,1.124 c 0.123,0.049 0.25,0.073 0.374,0.073 0.396,0 0.771,-0.236 0.928,-0.626 0.206,-0.511 -0.041,-1.094 -0.554,-1.301 z"
         style="fill:#f0c419"
         inkscape:connector-curvature="0" /><path
         id="path4230"
         d="M 5.519,21.188 8.3,22.312 c 0.123,0.049 0.25,0.073 0.374,0.073 0.396,0 0.771,-0.236 0.928,-0.626 C 9.809,21.247 9.561,20.664 9.049,20.457 L 6.267,19.333 c -0.513,-0.207 -1.095,0.04 -1.302,0.553 -0.206,0.511 0.041,1.094 0.554,1.302 z"
         style="fill:#f0c419"
         inkscape:connector-curvature="0" /><path
         id="path4232"
         d="m 39.907,50.781 c -0.216,-0.508 -0.803,-0.745 -1.311,-0.53 -0.508,0.216 -0.746,0.803 -0.53,1.311 l 1.172,2.762 c 0.162,0.381 0.532,0.61 0.921,0.61 0.13,0 0.263,-0.026 0.39,-0.08 0.508,-0.216 0.746,-0.803 0.53,-1.311 l -1.172,-2.762 z"
         style="fill:#f0c419"
         inkscape:connector-curvature="0" /><path
         id="path4234"
         d="m 21.014,9.829 c 0.13,0 0.263,-0.026 0.39,-0.08 0.508,-0.216 0.746,-0.803 0.53,-1.311 L 20.762,5.676 C 20.547,5.167 19.96,4.929 19.451,5.146 18.943,5.362 18.705,5.949 18.921,6.457 l 1.172,2.762 c 0.161,0.381 0.532,0.61 0.921,0.61 z"
         style="fill:#f0c419"
         inkscape:connector-curvature="0" /><path
         id="path4236"
         d="m 21.759,50.398 c -0.511,-0.205 -1.095,0.04 -1.302,0.553 l -1.124,2.782 c -0.207,0.512 0.041,1.095 0.553,1.302 0.123,0.049 0.25,0.073 0.374,0.073 0.396,0 0.771,-0.236 0.928,-0.626 L 22.312,51.7 c 0.207,-0.512 -0.041,-1.095 -0.553,-1.302 z"
         style="fill:#f0c419"
         inkscape:connector-curvature="0" /><path
         id="path4238"
         d="m 38.615,9.675 c 0.396,0 0.771,-0.236 0.928,-0.626 L 40.667,6.267 C 40.874,5.755 40.626,5.172 40.114,4.965 39.603,4.758 39.019,5.006 38.812,5.518 L 37.688,8.3 c -0.207,0.512 0.041,1.095 0.553,1.302 0.123,0.049 0.25,0.073 0.374,0.073 z"
         style="fill:#f0c419"
         inkscape:connector-curvature="0" /></g><circle
       id="circle4240"
       r="20"
       cy="30"
       cx="30"
       style="fill:#f0c419" /><circle
       id="circle4242"
       r="15"
       cy="30"
       cx="30"
       style="fill:#ede21b" /><g
       id="g4244" /><g
       id="g4246" /><g
       id="g4248" /><g
       id="g4250" /><g
       id="g4252" /><g
       id="g4254" /><g
       id="g4256" /><g
       id="g4258" /><g
       id="g4260" /><g
       id="g4262" /><g
       id="g4264" /><g
       id="g4266" /><g
       id="g4268" /><g
       id="g4270" /><g
       id="g4272" /></g><g
     inkscape:groupmode="layer"
     id="layer2"
     inkscape:label="clouds"><path
       style="enable-background:new 0 0 60.17600000000000200 60.17600000000000200;fill:#d0e8f9"
       d="m 56.336046,36.36925 -0.06075,0 c 0.02625,0.228 0.04425,0.45825 0.04425,0.69375 0,0.41475 -0.33525,0.75 -0.75,0.75 -0.41475,0 -0.75,-0.33525 -0.75,-0.75 0,-2.48175 -2.01825,-4.5 -4.5,-4.5 -2.48175,0 -4.5,2.01825 -4.5,4.5 0,0.41475 -0.33525,0.75 -0.75,0.75 -0.41475,0 -0.75,-0.33525 -0.75,-0.75 0,-3.048 2.28675,-5.56725 5.2335,-5.94525 -0.1695,-3.77925 -3.288,-6.80475 -7.1085,-6.80475 -3.83325,0 -6.96075,3.045 -7.11075,6.84225 0.62175,0.147 1.224,0.39 1.7835,0.73575 1.362,0.84375 2.3145,2.1675 2.682,3.7275 0.0945,0.4035 -0.15525,0.807 -0.558,0.90225 -0.4035,0.09075 -0.807,-0.15525 -0.90225,-0.558 -0.5685,-2.4165 -2.99925,-3.9195 -5.4105,-3.35025 -2.41575,0.5685 -3.91875,2.9955 -3.35025,5.41125 0.0945,0.40275 -0.15525,0.80625 -0.55875,0.9015 -0.057,0.0135 -0.11475,0.0195 -0.17175,0.0195 -0.33975,0 -0.648,-0.23325 -0.72975,-0.57825 -0.2205,-0.93825 -0.201,-1.8765 0.009,-2.7555 -1.5435,-0.22575 -3.10275,0.357 -4.11975,1.5915 -0.9435,1.14675 -1.21875,2.6235 -0.88125,3.96375 7.5e-4,0.009 0.0053,0.0165 0.006,0.0255 0.2295,0.8895 0.7275,1.7175 1.48875,2.34525 0.3195,0.264 0.36525,0.73575 0.10275,1.056 -0.1485,0.18 -0.363,0.273 -0.57975,0.273 -0.168,0 -0.336,-0.0555 -0.47625,-0.171 -0.91275,-0.7515 -1.566,-1.73325 -1.9095,-2.83575 -3.03225,-0.7905 -6.2205,0.48525 -7.8675,3.1965 -0.98775,1.626 -1.284,3.54 -0.8325,5.38875 0.4515,1.8495 1.59525,3.41175 3.222,4.40025 0.354,0.21525 0.4665,0.67575 0.25125,1.0305 -0.141,0.2325 -0.3885,0.36 -0.64125,0.36 -0.09975,0 -0.19875,-0.027 -0.294,-0.06825 1.185,0.702 2.54925,1.13175 4.008,1.19475 l 6.15675,0.0022 c 3.98025,-0.06375 7.38975,-2.52 8.84325,-5.994 1.47225,3.51975 4.95225,6 9,6 7.0305,0 12.75,-5.7195 12.75,-12.75 l 0,-7.5 -0.018,-0.75075 z"
       id="path25"
       inkscape:connector-curvature="0" /><g
       style="enable-background:new 0 0 60.17600000000000200 60.17600000000000200"
       id="g27"
       transform="matrix(0.75,0,0,0.75,11.222046,14.3425)"><path
         style="fill:#abcadd"
         d="M 53.108,22.435 C 52.877,16.296 47.824,11.369 41.63,11.369 c -6.142,0 -11.16,4.844 -11.47,10.91 -0.558,0.012 -1.119,0.078 -1.676,0.209 -2.336,0.55 -4.185,2.082 -5.229,4.052 -2.882,-0.585 -5.848,0.433 -7.75,2.742 -1.251,1.52 -1.879,3.408 -1.81,5.359 -4.63,-0.834 -9.34,1.224 -11.844,5.344 -1.596,2.625 -2.073,5.714 -1.345,8.698 0.728,2.984 2.575,5.506 5.2,7.102 0.162,0.099 0.342,0.146 0.519,0.146 0.338,0 0.667,-0.171 0.855,-0.48 C 7.367,54.978 7.217,54.364 6.745,54.077 4.576,52.759 3.051,50.676 2.449,48.21 1.847,45.745 2.242,43.193 3.559,41.025 c 2.196,-3.614 6.447,-5.315 10.49,-4.262 0.458,1.471 1.33,2.779 2.546,3.781 0.187,0.153 0.411,0.228 0.635,0.228 0.289,0 0.575,-0.124 0.773,-0.364 0.351,-0.427 0.289,-1.057 -0.137,-1.408 -1.016,-0.836 -1.679,-1.941 -1.985,-3.127 -10e-4,-0.012 -0.007,-0.022 -0.008,-0.034 -0.45,-1.787 -0.083,-3.756 1.175,-5.285 1.356,-1.646 3.435,-2.423 5.493,-2.122 -0.28,1.173 -0.307,2.423 -0.012,3.674 0.108,0.461 0.52,0.771 0.973,0.771 0.076,0 0.153,-0.009 0.229,-0.026 0.538,-0.127 0.871,-0.665 0.745,-1.202 -0.758,-3.221 1.246,-6.457 4.467,-7.215 3.215,-0.759 6.456,1.245 7.214,4.467 0.127,0.537 0.665,0.865 1.203,0.744 0.537,-0.127 0.87,-0.665 0.744,-1.203 -0.49,-2.08 -1.76,-3.845 -3.576,-4.97 -0.746,-0.462 -1.549,-0.785 -2.378,-0.981 0.2,-5.063 4.37,-9.123 9.481,-9.123 5.094,0 9.253,4.033 9.478,9.073 -3.929,0.504 -6.978,3.863 -6.978,7.927 0,0.553 0.447,1 1,1 0.553,0 1,-0.447 1,-1 0,-3.309 2.691,-6 6,-6 3.309,0 6.046,2.691 6.046,6 0,0.028 0,1.327 0,3 0,0.552 0.448,1 1,1 0.552,0 1,-0.448 1,-1 l 0,-3 C 60.176,26.29 57.059,22.92 53.108,22.435 Z"
         id="path29"
         inkscape:connector-curvature="0" /></g><g
       style="enable-background:new 0 0 60.17600000000000200 60.17600000000000200"
       id="g31"
       transform="matrix(0.75,0,0,0.75,11.222046,14.3425)"><path
         style="fill:#abcadd"
         d="m 43.176,57.369 c -4.973,0 -9.491,-2.608 -12,-6.789 -2.509,4.181 -7.027,6.789 -12,6.789 -0.552,0 -1,-0.447 -1,-1 0,-0.553 0.448,-1 1,-1 4.853,0 9.201,-2.899 11.078,-7.386 l 0.922,-2.206 0.922,2.206 c 1.876,4.486 6.225,7.386 11.078,7.386 0.552,0 1,0.447 1,1 0,0.553 -0.447,1 -1,1 z"
         id="path33"
         inkscape:connector-curvature="0" /></g><path
       style="enable-background:new 0 0 60.17600000000000200 60.17600000000000200;fill:#abcadd"
       d="m 52.526796,46.7755 c -0.3435,-2.98425 -2.88225,-5.3115 -5.95725,-5.3115 -3.30825,0 -6,2.69175 -6,6 0,0.414 0.336,0.75 0.75,0.75 0.414,0 0.75,-0.336 0.75,-0.75 0,-2.48175 2.01825,-4.5 4.5,-4.5 2.25225,0 4.1175,1.66425 4.44375,3.8265 -2.09775,0.38175 -3.69375,2.21775 -3.69375,4.4235 0,0.414 0.336,0.75 0.75,0.75 0.414,0 0.75,-0.336 0.75,-0.75 0,-1.6545 1.3455,-3 3,-3 1.6545,0 3,1.3455 3,3 0,0.414 0.336,0.75 0.75,0.75 0.414,0 0.75,-0.336 0.75,-0.75 0,-2.24025 -1.647,-4.09725 -3.79275,-4.4385 z"
       id="path35"
       inkscape:connector-curvature="0" /><g
       style="enable-background:new 0 0 60.17600000000000200 60.17600000000000200"
       id="g37" /><g
       style="enable-background:new 0 0 60.17600000000000200 60.17600000000000200"
       id="g39" /><g
       style="enable-background:new 0 0 60.17600000000000200 60.17600000000000200"
       id="g41" /><g
       style="enable-background:new 0 0 60.17600000000000200 60.17600000000000200"
       id="g43" /><g
       style="enable-background:new 0 0 60.17600000000000200 60.17600000000000200"
       id="g45" /><g
       style="enable-background:new 0 0 60.17600000000000200 60.17600000000000200"
       id="g47" /><g
       style="enable-background:new 0 0 60.17600000000000200 60.17600000000000200"
       id="g49" /><g
       style="enable-background:new 0 0 60.17600000000000200 60.17600000000000200"
       id="g51" /><g
       style="enable-background:new 0 0 60.17600000000000200 60.17600000000000200"
       id="g53" /><g
       style="enable-background:new 0 0 60.17600000000000200 60.17600000000000200"
       id="g55" /><g
       style="enable-background:new 0 0 60.17600000000000200 60.17600000000000200"
       id="g57" /><g
       style="enable-background:new 0 0 60.17600000000000200 60.17600000000000200"
       id="g59" /><g
       style="enable-background:new 0 0 60.17600000000000200 60.17600000000000200"
       id="g61" /><g
       style="enable-background:new 0 0 60.17600000000000200 60.17600000000000200"
       id="g63" /><g
       style="enable-background:new 0 0 60.17600000000000200 60.17600000000000200"
       id="g65" /></g></svg>